:FULLY-SPECIFIED
:FORCE-ALL-JOINTS-BE-3DOF
:DEGREES
713
root 5.47126 21.2293 7.36583 -19.5733 -87.9523 35.9302
lfemur -35.3892 -11.7809 10.3555
ltibia 71.0984 -0 0
lfoot 7.62666 -8.90443 0.00857796
ltoes 29.9848 -0 0
rfemur -31.3316 -1.20962 -0.498022
rtibia 88.4735 -0 0
rfoot 20.2268 -18.4145 -0.215089
rtoes 39.0599 -0 0
lowerback 5.6975 -0.914378 -1.8434
upperback -1.37142 -1.44584 -1.65757
thorax -4.61587 -0.698278 -0.561263
lowerneck -6.82914 -6.28166 -2.20467
upperneck 0.00614289 -8.36999 4.93809
head 1.4908 -4.11436 1.63475
lclavicle 1.2921e-14 3.18055e-14 0
lhumerus 1.36027 -20.9864 16.4926
lradius 48.1313 -0 0
lwrist 23.2459 0 0
lhand -22.1665 -3.63578 -0.00122914
lfingers 7.12502 -0 0
lthumb 4.24798 26.3015 -0.0011914
rclavicle 1.2921e-14 3.18055e-14 0
rhumerus -13.2638 -2.726 -26.6208
rradius 99.4312 -0 0
rwrist -9.97945 0 0
rhand -27.2692 -34.6242 0.042101
rfingers 7.12502 -0 0
rthumb -0.679954 -64.5924 0.0399806
714
root 5.48112 21.3794 7.58092 -95.2775 -88.7671 111.673
lfemur -34.4868 -13.1424 9.45123
ltibia 68.1112 -0 0
lfoot 7.53051 -9.17329 0.00451455
ltoes 29.9093 -0 0
rfemur -32.5844 -1.39048 -1.21045
rtibia 92.7429 -0 0
rfoot 20.7962 -19.5395 -0.113122
rtoes 40.9954 -0 0
lowerback 5.84699 -0.733847 -1.80944
upperback -1.3477 -1.2045 -1.6127
thorax -4.6757 -0.577389 -0.545861
lowerneck -6.8559 -6.36669 -2.31886
upperneck -0.213806 -8.46456 4.91876
head 1.43072 -4.16643 1.64496
lclavicle 1.2921e-14 3.18055e-14 0
lhumerus -0.207473 -20.6144 16.5633
lradius 46.3917 -0 0
lwrist 22.892 0 0
lhand -22.1928 -3.49492 -0.00064691
lfingers 7.12502 -0 0
lthumb 4.22258 26.4429 -0.000627047
rclavicle 1.2921e-14 3.18055e-14 0
rhumerus -12.0575 -2.28983 -27.093
rradius 99.3438 -0 0
rwrist -9.92461 0 0
rhand -26.9119 -34.2696 0.0221559
rfingers 7.12502 -0 0
rthumb -0.334909 -64.2436 0.0210401
715
root 5.49097 21.5295 7.79601 -140.605 -87.2103 157.04
lfemur -33.5571 -14.4896 8.51967
ltibia 65.1241 0 0
lfoot 7.43438 -9.44215 0
ltoes 29.8338 0 0
rfemur -33.8349 -1.58686 -1.91882
rtibia 97.0122 0 0
rfoot 21.3635 -20.6634 0
rtoes 42.9309 0 0
lowerback 5.99658 -0.553404 -1.77502
upperback -1.3238 -0.963173 -1.56773
thorax -4.7355 -0.456483 -0.530585
lowerneck -6.88249 -6.45178 -2.43303
upperneck -0.433777 -8.5592 4.89979
head 1.37063 -4.21848 1.65523
lclavicle 1.2921e-14 3.18055e-14 0
lhumerus -1.77093 -20.2407 16.623
lradius 44.6521 0 0
lwrist 22.5382 0 0
lhand -22.2191 -3.35407 0
lfingers 7.12502 0 0
lthumb 4.19717 26.5843 0
rclavicle 1.2921e-14 3.18055e-14 0
rhumerus -10.8552 -1.84384 -27.5558
rradius 99.2563 0 0
rwrist -9.86977 0 0
rhand -26.5547 -33.9151 0
rfingers 7.12502 0 0
rthumb 0.0100137 -783.895 0
716
root 5.44711 21.4025 8.00895 -154.412 -84.8133 171.225
lfemur -32.9591 -14.6208 8.00055
ltibia 62.7552 -0 0
lfoot 7.53792 -9.6702 -0.00412363
ltoes 29.3256 -0 0
rfemur -33.5707 -2.90525 -2.11915
rtibia 98.3985 -0 0
rfoot 21.8947 -19.3202 0.127266
rtoes 42.3198 -0 0
lowerback 5.70827 -0.188156 -1.60259
upperback -1.39278 -0.455572 -1.55205
thorax -4.62242 -0.208397 -0.623853
lowerneck -6.93909 -6.50544 -2.38256
upperneck -0.496141 -8.63256 4.81527
head 1.35485 -4.25842 1.61668
lclavicle 4.74101e-14 -5.36719e-14 0
lhumerus -4.19482 -20.7439 17.9899
lradius 44.85 -0 0
lwrist 22.443 0 0
lhand -22.2075 -3.39322 -7.93017e-05
lfingers 7.12502 -0 0
lthumb 4.20838 26.5449 -7.70364e-05
rclavicle 4.74101e-14 -5.36719e-14 0
rhumerus -8.68719 -1.57829 -28.4868
rradius 98.8567 -0 0
rwrist -9.77935 0 0
rhand -26.7076 -33.7772 -0.00368277
rfingers 7.12502 -0 0
rthumb -0.137673 -63.756 -0.00358485
717
root 5.40326 21.2755 8.22189 -159.255 -82.304 176.447
lfemur -32.3595 -14.7467 7.47974
ltibia 60.3863 -0 0
lfoot 7.64147 -9.89825 -0.00783512
ltoes 28.8175 -0 0
rfemur -33.3016 -4.22269 -2.32586
rtibia 99.7848 -0 0
rfoot 22.4288 -17.9759 0.242038
rtoes 41.7088 -0 0
lowerback 5.42105 0.177953 -1.43199
upperback -1.46162 0.0520474 -1.53698
thorax -4.50974 0.0398727 -0.71663
lowerneck -6.99574 -6.55905 -2.33204
upperneck -0.558408 -8.70602 4.73082
head 1.33909 -4.29837 1.57814
lclavicle 4.74101e-14 -5.36719e-14 0
lhumerus -6.63861 -21.1922 19.3827
lradius 45.0478 -0 0
lwrist 22.3478 0 0
lhand -22.1959 -3.43238 -0.000150673
lfingers 7.12502 -0 0
lthumb 4.21959 26.5055 -0.000146369
rclavicle 4.74101e-14 -5.36719e-14 0
rhumerus -6.52404 -1.27777 -29.407
rradius 98.4571 -0 0
rwrist -9.68893 0 0
rhand -26.8605 -33.6392 -0.00699741
rfingers 7.12502 -0 0
rthumb -0.285367 -63.617 -0.00681135
718
root 5.3594 21.1486 8.43484 -161.616 -79.7648 179.188
lfemur -31.7585 -14.8674 6.95729
ltibia 58.0174 -0 0
lfoot 7.74504 -10.1263 -0.0111344
ltoes 28.3093 -0 0
rfemur -33.0271 -5.53914 -2.5392
rtibia 101.171 -0 0
rfoot 22.9654 -16.6306 0.344245
rtoes 41.0977 -0 0
lowerback 5.13492 0.544912 -1.26323
upperback -1.53033 0.559684 -1.52251
thorax -4.39746 0.288324 -0.80892
lowerneck -7.05244 -6.61261 -2.28146
upperneck -0.620578 -8.77956 4.64643
head 1.32336 -4.33833 1.53961
lclavicle 4.74101e-14 -5.36719e-14 0
lhumerus -9.10043 -21.5844 20.7988
lradius 45.2457 -0 0
lwrist 22.2527 0 0
lhand -22.1843 -3.47153 -0.000214115
lfingers 7.12502 -0 0
lthumb 4.23079 26.4662 -0.000207998
rclavicle 4.74101e-14 -5.36719e-14 0
rhumerus -4.36624 -0.942786 -30.3151
rradius 98.0575 -0 0
rwrist -9.59851 0 0
rhand -27.0135 -33.5013 -0.00994386
rfingers 7.12502 -0 0
rthumb -0.43307 -63.4779 -0.00967945
719
root 5.31555 21.0216 8.64778 -162.962 -77.2135 -179.085
lfemur -31.156 -14.9827 6.43328
ltibia 55.6485 -0 0
lfoot 7.84862 -10.3544 -0.0140214
ltoes 27.8012 -0 0
rfemur -32.7471 -6.85454 -2.75941
rtibia 102.557 -0 0
rfoot 23.5043 -15.2843 0.43382
rtoes 40.4866 -0 0
lowerback 4.84985 0.912707 -1.09629
upperback -1.59892 1.06734 -1.50866
thorax -4.28558 0.536955 -0.900725
lowerneck -7.1092 -6.66613 -2.23081
upperneck -0.682651 -8.8532 4.5621
head 1.30766 -4.3783 1.50109
lclavicle 4.74101e-14 -5.36719e-14 0
lhumerus -11.5782 -21.9195 22.2353
lradius 45.4436 -0 0
lwrist 22.1575 0 0
lhand -22.1727 -3.51068 -0.000269626
lfingers 7.12502 -0 0
lthumb 4.242 26.4268 -0.000261924
rclavicle 4.74101e-14 -5.36719e-14 0
rhumerus -2.21418 -0.573896 -31.2099
rradius 97.6578 -0 0
rwrist -9.50809 0 0
rhand -27.1664 -33.3633 -0.0125221
rfingers 7.12502 -0 0
rthumb -0.580778 -63.3389 -0.0121891
720
root 5.27169 20.8946 8.86072 -163.797 -74.6562 -177.866
lfemur -30.5521 -15.0927 5.90776
ltibia 53.2796 -0 0
lfoot 7.95221 -10.5824 -0.0164961
ltoes 27.293 -0 0
rfemur -32.461 -8.16884 -2.98679
rtibia 103.944 -0 0
rfoot 24.0451 -13.9373 0.510707
rtoes 39.8756 -0 0
lowerback 4.56581 1.28133 -0.931158
upperback -1.6674 1.57501 -1.49541
thorax -4.17409 0.785765 -0.99205
lowerneck -7.16602 -6.71959 -2.18011
upperneck -0.744626 -8.92692 4.47784
head 1.29198 -4.41828 1.46258
lclavicle 4.74101e-14 -5.36719e-14 0
lhumerus -14.0696 -22.1964 23.6893
lradius 45.6415 -0 0
lwrist 22.0623 0 0
lhand -22.1611 -3.54984 -0.000317208
lfingers 7.12502 -0 0
lthumb 4.25321 26.3874 -0.000308146
rclavicle 4.74101e-14 -5.36719e-14 0
rhumerus -0.0682448 -0.171715 -32.0901
rradius 97.2582 -0 0
rwrist -9.41767 0 0
rhand -27.3193 -33.2254 -0.014732
rfingers 7.12502 -0 0
rthumb -0.728492 -63.1998 -0.0143403
721
root 5.22784 20.7676 9.07366 -164.339 -72.0956 -176.938
lfemur -29.9468 -15.1974 5.3808
ltibia 50.9107 -0 0
lfoot 8.05581 -10.8105 -0.0185584
ltoes 26.7849 -0 0
rfemur -32.1687 -9.482 -3.22162
rtibia 105.33 -0 0
rfoot 24.5877 -12.5895 0.574855
rtoes 39.2645 -0 0
lowerback 4.28279 1.65076 -0.767831
upperback -1.73578 2.08269 -1.48276
thorax -4.06299 1.03475 -1.0829
lowerneck -7.22288 -6.773 -2.12935
upperneck -0.806504 -9.00074 4.39364
head 1.27632 -4.45827 1.42407
lclavicle 4.74101e-14 -5.36719e-14 0
lhumerus -16.5722 -22.4143 25.1574
lradius 45.8393 -0 0
lwrist 21.9671 0 0
lhand -22.1495 -3.58899 -0.000356859
lfingers 7.12502 -0 0
lthumb 4.26442 26.348 -0.000346665
rclavicle 4.74101e-14 -5.36719e-14 0
rhumerus 2.07128 0.263095 -32.9547
rradius 96.8586 -0 0
rwrist -9.32724 0 0
rhand -27.4723 -33.0874 -0.0165737
rfingers 7.12502 -0 0
rthumb -0.876211 -63.0608 -0.016133
722
root 5.18398 20.6407 9.28661 -164.697 -69.5331 -176.192
lfemur -29.3404 -15.2966 4.85248
ltibia 48.5418 -0 0
lfoot 8.15942 -11.0386 -0.0202083
ltoes 26.2767 -0 0
rfemur -31.8697 -10.7939 -3.46423
rtibia 106.716 -0 0
rfoot 25.1315 -11.2412 0.626223
rtoes 38.6534 -0 0
lowerback 4.00077 2.02099 -0.606298
upperback -1.80407 2.59039 -1.47072
thorax -3.95228 1.28391 -1.17327
lowerneck -7.2798 -6.82636 -2.07853
upperneck -0.868284 -9.07464 4.30951
head 1.2607 -4.49827 1.38558
lclavicle 4.74101e-14 -5.36719e-14 0
lhumerus -19.0834 -22.5726 26.6365
lradius 46.0372 -0 0
lwrist 21.872 0 0
lhand -22.1379 -3.62814 -0.00038858
lfingers 7.12502 -0 0
lthumb 4.27563 26.3086 -0.000377479
rclavicle 4.74101e-14 -5.36719e-14 0
rhumerus 4.20414 0.72983 -33.8025
rradius 96.459 -0 0
rwrist -9.23682 0 0
rhand -27.6252 -32.9494 -0.0180471
rfingers 7.12502 -0 0
rthumb -1.02393 -62.9217 -0.0175672
723
root 5.14012 20.5137 9.49955 -164.931 -66.9693 -175.566
lfemur -28.7327 -15.3905 4.32284
ltibia 46.1729 -0 0
lfoot 8.26304 -11.2667 -0.0214457
ltoes 25.7685 -0 0
rfemur -31.5636 -12.1046 -3.71497
rtibia 108.102 -0 0
rfoot 25.6765 -9.89252 0.664779
rtoes 38.0424 -0 0
lowerback 3.71972 2.39201 -0.446551
upperback -1.87229 3.09811 -1.45927
thorax -3.84195 1.53325 -1.26317
lowerneck -7.33678 -6.87968 -2.02765
upperneck -0.929968 -9.14864 4.22544
head 1.2451 -4.53829 1.34709
lclavicle 4.74101e-14 -5.36719e-14 0
lhumerus -21.6006 -22.6708 28.123
lradius 46.2351 -0 0
lwrist 21.7768 0 0
lhand -22.1263 -3.6673 -0.000412371
lfingers 7.12502 -0 0
lthumb 4.28683 26.2693 -0.000400591
rclavicle 4.74101e-14 -5.36719e-14 0
rhumerus 6.33017 1.22774 -34.6324
rradius 96.0594 -0 0
rwrist -9.1464 0 0
rhand -27.7782 -32.8114 -0.0191522
rfingers 7.12502 -0 0
rthumb -1.17166 -62.7827 -0.0186429
724
root 5.09627 20.3867 9.71249 -165.079 -64.4048 -175.023
lfemur -28.1238 -15.4789 3.79198
ltibia 43.804 -0 0
lfoot 8.36665 -11.4948 -0.0222707
ltoes 25.2604 -0 0
rfemur -31.2501 -13.4139 -3.97421
rtibia 109.489 -0 0
rfoot 26.2221 -8.54347 0.690496
rtoes 37.4313 -0 0
lowerback 3.43963 2.76381 -0.288581
upperback -1.94044 3.60584 -1.44843
thorax -3.73199 1.78276 -1.3526
lowerneck -7.39381 -6.93294 -1.97672
upperneck -0.991554 -9.22272 4.14143
head 1.22952 -4.57831 1.30862
lclavicle 4.74101e-14 -5.36719e-14 0
lhumerus -24.1209 -22.7087 29.6136
lradius 46.4329 -0 0
lwrist 21.6816 0 0
lhand -22.1147 -3.70645 -0.000428231
lfingers 7.12502 -0 0
lthumb 4.29804 26.2299 -0.000415998
rclavicle 4.74101e-14 -5.36719e-14 0
rhumerus 8.44927 1.75605 -35.4435
rradius 95.6598 -0 0
rwrist -9.05598 0 0
rhand -27.9312 -32.6735 -0.0198889
rfingers 7.12502 -0 0
rthumb -1.31939 -62.6436 -0.01936
725
root 5.05241 20.2597 9.92543 -165.163 -61.8398 -174.54
lfemur -27.5139 -15.5619 3.25994
ltibia 41.4351 -0 0
lfoot 8.47027 -11.7228 -0.0226832
ltoes 24.7522 -0 0
rfemur -30.9286 -14.7218 -4.24233
rtibia 110.875 -0 0
rfoot 26.7683 -7.19424 0.703359
rtoes 36.8202 -0 0
lowerback 3.16047 3.13638 -0.132381
upperback -2.00854 4.11358 -1.43818
thorax -3.62241 2.03244 -1.44156
lowerneck -7.45089 -6.98615 -1.92572
upperneck -1.05304 -9.29689 4.05748
head 1.21398 -4.61834 1.27015
lclavicle 4.74101e-14 -5.36719e-14 0
lhumerus -26.6416 -22.6859 31.1045
lradius 46.6308 -0 0
lwrist 21.5864 0 0
lhand -22.1031 -3.7456 -0.000436161
lfingers 7.12502 -0 0
lthumb 4.30925 26.1905 -0.000423702
rclavicle 4.74101e-14 -5.36719e-14 0
rhumerus 10.5614 2.31393 -36.2348
rradius 95.2602 -0 0
rwrist -8.96556 0 0
rhand -28.0841 -32.5355 -0.0202572
rfingers 7.12502 -0 0
rthumb -1.46712 -62.5045 -0.0197186
